HIERARCHY
ROOT Hips
{
    OFFSET 0.0 0.0 0.0
    CHANNELS 6 Xposition Yposition Zposition Zrotation Xrotation Yrotation
    JOINT Spine
    {
        OFFSET 0.0 5.0 0.0
        CHANNELS 3 Zrotation Xrotation Yrotation
        JOINT Chest
        {
            OFFSET 0.0 5.0 0.0
            CHANNELS 3 Zrotation Xrotation Yrotation
            JOINT Neck
            {
                OFFSET 0.0 5.0 0.0
                CHANNELS 3 Zrotation Xrotation Yrotation
                JOINT Head
                {
                    OFFSET 0.0 3.0 0.0
                    CHANNELS 3 Zrotation Xrotation Yrotation
                    End Site
                    {
                        OFFSET 0.0 3.0 0.0
                    }
                }
            }
            JOINT LeftShoulder
            {
                OFFSET -3.0 4.0 0.0
                CHANNELS 3 Zrotation Xrotation Yrotation
                JOINT LeftUpperArm
                {
                    OFFSET -5.0 0.0 0.0
                    CHANNELS 3 Zrotation Xrotation Yrotation
                    JOINT LeftLowerArm
                    {
                        OFFSET -5.0 0.0 0.0
                        CHANNELS 3 Zrotation Xrotation Yrotation
                        JOINT LeftHand
                        {
                            OFFSET -3.0 0.0 0.0
                            CHANNELS 3 Zrotation Xrotation Yrotation
                            End Site
                            {
                                OFFSET -2.0 0.0 0.0
                            }
                        }
                    }
                }
            }
            JOINT RightShoulder
            {
                OFFSET 3.0 4.0 0.0
                CHANNELS 3 Zrotation Xrotation Yrotation
                JOINT RightUpperArm
                {
                    OFFSET 5.0 0.0 0.0
                    CHANNELS 3 Zrotation Xrotation Yrotation
                    JOINT RightLowerArm
                    {
                        OFFSET 5.0 0.0 0.0
                        CHANNELS 3 Zrotation Xrotation Yrotation
                        JOINT RightHand
                        {
                            OFFSET 3.0 0.0 0.0
                            CHANNELS 3 Zrotation Xrotation Yrotation
                            End Site
                            {
                                OFFSET 2.0 0.0 0.0
                            }
                        }
                    }
                }
            }
        }
    }
    JOINT LeftUpLeg
    {
        OFFSET -3.0 0.0 0.0
        CHANNELS 3 Zrotation Xrotation Yrotation
        JOINT LeftLeg
        {
            OFFSET 0.0 -8.0 0.0
            CHANNELS 3 Zrotation Xrotation Yrotation
            JOINT LeftFoot
            {
                OFFSET 0.0 -8.0 0.0
                CHANNELS 3 Zrotation Xrotation Yrotation
                End Site
                {
                    OFFSET 0.0 -2.0 2.0
                }
            }
        }
    }
    JOINT RightUpLeg
    {
        OFFSET 3.0 0.0 0.0
        CHANNELS 3 Zrotation Xrotation Yrotation
        JOINT RightLeg
        {
            OFFSET 0.0 -8.0 0.0
            CHANNELS 3 Zrotation Xrotation Yrotation
            JOINT RightFoot
            {
                OFFSET 0.0 -8.0 0.0
                CHANNELS 3 Zrotation Xrotation Yrotation
                End Site
                {
                    OFFSET 0.0 -2.0 2.0
                }
            }
        }
    }
}

MOTION
Frames: 6
Frame Time: 0.03333333333333333
-3.321689 8.260947 0.001703 0.000000 0.000000 20.049007 1.194859 -97.902921 0.000000 0.000000 0.000000 0.000000 0.000000 0.000000 0.000000 0.000000 -23.641134 179.798431 0.000000 0.000000 0.000000 0.000000 -38.360394 146.409625 0.000000 27.500294 178.637653 0.000000 0.000000 0.000000 0.000000 0.000000 0.000000 0.000000 -18.258703 -114.692190 0.000000 39.002899 174.562989 0.000000 0.000000 0.000000 0.000000 -86.981940 -97.386939 0.000000 -40.085446 -3.272839 0.000000 0.000000 0.000000 0.000000 -88.747394 103.928026 0.000000 -47.026367 0.819076 0.000000 0.000000 0.000000
-3.377153 8.280608 0.001854 0.000000 0.000000 19.689519 1.245048 -99.706749 0.000000 0.000000 0.000000 0.000000 0.000000 0.000000 0.000000 0.000000 -23.379828 179.837482 0.000000 0.000000 0.000000 0.000000 -37.811881 147.970509 0.000000 29.790284 178.515543 0.000000 0.000000 0.000000 0.000000 0.000000 0.000000 0.000000 -18.764638 -108.719253 0.000000 42.218710 176.039535 0.000000 0.000000 0.000000 0.000000 -87.134864 -93.300535 0.000000 -37.156740 -2.547209 0.000000 0.000000 0.000000 0.000000 -88.886208 107.131228 0.000000 -45.550605 1.138224 0.000000 0.000000 0.000000
-3.393573 8.161712 0.002342 0.000000 0.000000 12.985213 0.638223 -101.370808 0.000000 0.000000 0.000000 0.000000 0.000000 0.000000 0.000000 0.000000 -23.221034 179.993751 0.000000 0.000000 0.000000 0.000000 -31.088159 155.682566 0.000000 23.724610 178.111742 0.000000 0.000000 0.000000 0.000000 0.000000 0.000000 0.000000 -19.185115 -105.415593 0.000000 38.739171 -171.658210 0.000000 0.000000 0.000000 0.000000 -87.967484 -14.867600 0.000000 -27.346200 -2.359451 0.000000 0.000000 0.000000 0.000000 -88.630121 150.154745 0.000000 -39.654756 1.116795 0.000000 0.000000 0.000000
-3.372623 8.093737 0.002866 0.000000 0.000000 10.434567 0.278865 -104.027172 0.000000 0.000000 0.000000 0.000000 0.000000 0.000000 0.000000 0.000000 -22.512291 179.824181 0.000000 0.000000 0.000000 0.000000 -29.630252 156.956282 0.000000 21.827151 177.783939 0.000000 0.000000 0.000000 0.000000 0.000000 0.000000 0.000000 -20.410382 -123.458898 0.000000 30.497140 -172.265541 0.000000 0.000000 0.000000 0.000000 -87.332224 17.888753 0.000000 -25.011532 -2.551647 0.000000 0.000000 0.000000 0.000000 -87.775494 161.597574 0.000000 -38.056006 1.604789 0.000000 0.000000 0.000000
-3.341082 7.837290 0.002371 0.000000 0.000000 11.434847 -0.158596 -104.976298 0.000000 0.000000 0.000000 0.000000 0.000000 0.000000 0.000000 0.000000 -23.850765 179.909706 0.000000 0.000000 0.000000 0.000000 -27.743451 159.662846 0.000000 24.362005 178.362626 0.000000 0.000000 0.000000 0.000000 0.000000 0.000000 0.000000 -21.007420 -145.082955 0.000000 28.194567 -175.021672 0.000000 0.000000 0.000000 0.000000 -83.534807 26.118946 0.000000 -25.699760 -2.468452 0.000000 0.000000 0.000000 0.000000 -86.313690 12.185714 0.000000 -33.847705 1.345356 0.000000 0.000000 0.000000
-3.268276 7.851341 -0.001410 0.000000 0.000000 16.047417 -0.463006 -107.428614 0.000000 0.000000 0.000000 0.000000 0.000000 0.000000 0.000000 0.000000 -23.893165 179.937461 0.000000 0.000000 0.000000 0.000000 -30.237669 158.313896 0.000000 25.062482 178.482336 0.000000 0.000000 0.000000 0.000000 0.000000 0.000000 0.000000 -19.561217 -154.617545 0.000000 24.875558 179.596016 0.000000 0.000000 0.000000 0.000000 -86.255084 29.339561 0.000000 -31.558048 -2.343671 0.000000 0.000000 0.000000 0.000000 -84.806704 8.716841 0.000000 -35.466060 1.399391 0.000000 0.000000 0.000000
